<?xml version="1.0" encoding="UTF-8"?>
<svg width="108px" height="30px" viewBox="0 0 108 30" version="1.1" xmlns="http://www.w3.org/2000/svg" xmlns:xlink="http://www.w3.org/1999/xlink">
    <!-- Generator: Sketch 54.1 (76490) - https://sketchapp.com -->
    <title>Logo / PIAS-logo</title>
    <desc>Created with Sketch.</desc>
    <g id="Logo-/-PIAS-logo" stroke="none" stroke-width="1" fill="none" fill-rule="evenodd">
        <g id="Logo/PIAS-logo" fill-rule="nonzero">
            <path d="M15.5718994,9.73449707 C15.5718994,8.2838876 15.1903318,7.2495555 14.4271851,6.63146973 C13.6640383,6.01338395 12.5950183,5.7043457 11.2200928,5.7043457 L5.78979492,5.7043457 L5.78979492,13.9160156 L11.2200928,13.9160156 C12.5950183,13.9160156 13.6640383,13.5817498 14.4271851,12.913208 C15.1903318,12.2446663 15.5718994,11.1851065 15.5718994,9.73449707 Z M21.3427734,9.69665527 C21.3427734,12.9889081 20.5102622,15.3161553 18.8452148,16.6784668 C17.1801675,18.0407783 14.802465,18.7219238 11.7120361,18.7219238 L5.78979492,18.7219238 L5.78979492,28.75 L-1.42108547e-14,28.75 L-1.42108547e-14,3.76235962 C0.0452677409,2.84754435 0.264790853,2.13521322 0.658569336,1.62536621 C1.24923706,0.860595703 1.86203003,0.860595703 2.51174927,0.860595703 C4.77798462,0.860595703 7.98980713,0.860595703 12.1472168,0.860595703 C14.9475238,0.860595703 17.1801675,1.57958265 18.8452148,3.01757812 C20.5102622,4.4555736 21.3427734,6.68191038 21.3427734,9.69665527 Z M37.0397949,28.75 L31.25,28.75 L31.25,3.83582859 C31.2506958,3.18481161 31.5229951,2.53114628 32.0668979,1.87483259 C32.6108008,1.2185189 33.3634015,0.88043994 34.3247,0.860595703 L37.0397949,0.860595703 L37.0397949,28.75 Z M89.9953616,20.1409912 C90.1719575,21.4150047 90.5188372,22.3673471 91.036011,22.9980469 C91.9820606,24.1459205 93.6029347,24.7198486 95.8986819,24.7198486 C97.2736074,24.7198486 98.3899292,24.568483 99.2476809,24.2657471 C100.874886,23.6855033 101.688477,22.6070229 101.688477,21.0302734 C101.688477,20.1094518 101.284835,19.3967717 100.477539,18.8922119 C99.6702436,18.4002661 98.4025561,17.9650898 96.6744387,17.5866699 L93.7227786,16.9244385 C90.8215596,16.2685107 88.8159644,15.5558307 87.7059329,14.786377 C85.8264475,13.4997494 84.886719,11.4878473 84.886719,8.75061035 C84.886719,6.25303927 85.794913,4.17806816 87.6113284,2.52563477 C89.4277437,0.873201373 92.0955637,0.0469970703 95.6148684,0.0469970703 C98.5539293,0.0469970703 101.060923,0.8258996 103.135926,2.38372803 C105.210928,3.94155645 106.298869,6.20258121 106.399781,9.16687012 L100.799195,9.16687012 C100.698283,7.48920873 99.9666819,6.29720405 98.6043704,5.59082031 C97.6961627,5.12410248 96.567227,4.89074707 95.2175295,4.89074707 C93.7164641,4.89074707 92.5181525,5.19347842 91.6225588,5.7989502 C90.7269652,6.40442197 90.279175,7.24954698 90.279175,8.33435059 C90.279175,9.33085622 90.7206583,10.0750708 91.6036379,10.5670166 C92.1712677,10.8949805 93.3821931,11.2797016 95.2364504,11.7211914 L100.042359,12.8753662 C102.148896,13.379926 103.738235,14.0547647 104.810425,14.8999023 C106.475472,16.2117579 107.307984,18.1101357 107.307984,20.5950928 C107.307984,23.1431198 106.333567,25.2590858 104.384705,26.9430542 C102.435843,28.6270226 99.6828794,29.4689941 96.1257327,29.4689941 C92.492902,29.4689941 89.6358749,28.6396364 87.5545657,26.980896 C85.4732564,25.3221556 84.4326174,23.0422101 84.4326174,20.1409912 L89.9953616,20.1409912 Z" id="PIAS" fill="#8A7967"></path>
            <path d="M60.0661248,3.03950201 C61.2200586,1.01316734 62.198017,-1.77635684e-15 63,-1.77635684e-15 C63.801983,-1.77635684e-15 64.7817302,1.01316734 65.9392416,3.03950201 L79,28.75 L76.2682575,28.75 C74.6950011,28.75 73.5745726,28.3542091 72.9069718,27.5626274 C72.239371,26.7710456 71.6590948,25.9671507 71.166143,25.1509426 L64.9834409,13.6517158 C64.2997339,12.4181274 63.638587,11.8013332 63,11.8013332 C62.361413,11.8013332 61.7672526,12.4181274 61.2175187,13.6517158 L55.0946841,25.1509426 C54.655231,25.8616855 54.0274711,26.6655805 53.2114046,27.5626274 C52.4727731,28.3745551 51.445401,28.770346 50.1292884,28.75 L47,28.75 L60.0661248,3.03950201 Z" id="Path" fill="#007DC3"></path>
        </g>
    </g>
</svg>